<?xml version="1.0" encoding="iso-8859-1"?>
<!-- Generator: Adobe Illustrator 18.0.0, SVG Export Plug-In . SVG Version: 6.00 Build 0)  -->
<!DOCTYPE svg PUBLIC "-//W3C//DTD SVG 1.1//EN" "http://www.w3.org/Graphics/SVG/1.1/DTD/svg11.dtd">
<svg version="1.1" id="_x31_" xmlns="http://www.w3.org/2000/svg" xmlns:xlink="http://www.w3.org/1999/xlink" x="0px" y="0px"
	 viewBox="0 0 512 512" style="enable-background:new 0 0 512 512;" xml:space="preserve">
<g>
	<rect style="fill:#D7DE98;" width="512" height="512"/>
	<polygon style="opacity:0.1;fill:#231815;" points="512,168.245 512,512 321.33,512 220.315,410.985 223.385,311.655 
		87.193,175.465 318.975,235.52 449.125,105.37 	"/>
	<g>
		<path style="fill:#AE8354;" d="M430.375,97.335c-15.875,3.695-55.74,15.33-85.02,25.07c-15.71,5.255-23.75,15.715-27.865,26.225
			c-0.936-0.135-1.81-0.23-2.5-0.23c-7.175,0-41.055,0-58.985,0c-17.945,0-51.83,0-59,0c-0.695,0-1.56,0.095-2.5,0.23
			c-4.12-10.51-12.16-20.97-27.86-26.225c-29.285-9.74-69.15-21.375-85.03-25.07c-18.44-4.3-35.585,7.295-22.305,34.85
			c12.835,26.62,29.265,59.915,68.3,69.69c10.4,2.595,20.275,3.185,29.205,2.695c-0.91,4.65-1.85,9.445-2.755,14.15
			c-3.32,17.17-6.315,33.1-6.88,36.495c-2.52,15.165,5.98,27.505,11.56,37.87c3.68,6.855,42.445,73.555,45.435,80.125
			c1.83,4.02,5.715,7.42,6.745,12.16c0.145,0.7,0.43,1.36,0.43,2.13c0,1.34,0,2.355,0,3.245c0,0.32,0,0.685,0,0.945
			c0,4.79,2.39,19.13,16.74,19.13c14.355,0,27.915,0,27.915,0s13.545,0,27.9,0c14.345,0,16.74-14.34,16.74-19.13
			c0-0.26,0-0.625,0-0.945c0-0.89,0-1.905,0-3.245c0-0.77,0.28-1.43,0.425-2.13c1.03-4.74,4.92-8.14,6.745-12.16
			c2.99-6.57,41.765-73.27,45.44-80.125c5.585-10.365,14.08-22.705,11.555-37.87c-0.56-3.395-3.56-19.325-6.87-36.495
			c-0.91-4.705-1.85-9.5-2.76-14.15c8.935,0.49,18.805-0.1,29.205-2.695c39.035-9.775,55.47-43.07,68.3-69.69
			C465.97,104.63,448.82,93.035,430.375,97.335z"/>
		<g>
			<g>
				<g>
					<path style="fill:#9E8074;" d="M198.69,172.6c0-12.55-2.795-40.415-32.045-50.195c-29.285-9.74-69.15-21.375-85.03-25.07
						c-18.44-4.3-35.585,7.295-22.305,34.85c12.835,26.62,29.265,59.915,68.3,69.69c39.035,9.755,71.08-8.37,71.08-8.37V172.6z"/>
					<path style="fill:#BF9862;" d="M151.265,194.485c-6.09,0-12.085-0.725-17.86-2.165c-20.32-5.08-32.405-19.27-43.075-38.34
						c-3.23-5.775,2.825-15.31,10.735-13.06c17.525,4.985,39.525,11.68,58.005,17.845c4.305,1.425,15.7,5.229,15.7,27.485v4.77
						c-6.17,1.815-14.315,3.465-23.5,3.465C151.27,194.485,151.27,194.485,151.265,194.485z"/>
				</g>
				<g>
					<path style="fill:#99756D;" d="M313.3,172.6c0-12.55,2.795-40.415,32.055-50.195c29.28-9.74,69.145-21.375,85.02-25.07
						c18.445-4.3,35.595,7.295,22.31,34.85c-12.83,26.62-29.265,59.915-68.3,69.69c-39.03,9.755-71.085-8.37-71.085-8.37V172.6z"/>
					<path style="fill:#BF9862;" d="M360.73,194.485c6.09,0,12.09-0.725,17.87-2.165c20.305-5.08,32.39-19.27,43.065-38.34
						c3.23-5.775-2.825-15.31-10.735-13.06c-17.525,4.985-39.525,11.68-58.005,17.845c-4.3,1.425-15.705,5.229-15.705,27.485v4.77
						c6.175,1.815,14.315,3.465,23.505,3.465C360.725,194.485,360.725,194.485,360.73,194.485z"/>
				</g>
			</g>
			<g>
				<g>
					<path style="fill:#D5B99D;" d="M154.06,218.72c-3.32,17.17-6.315,33.1-6.88,36.495c-2.52,15.165,5.98,27.505,11.56,37.87
						c3.68,6.855,42.445,73.555,45.435,80.125c1.83,4.02,5.715,7.42,6.745,12.16C257.245,293.62,212.085,232.565,154.06,218.72z"/>
					<path style="fill:#AE8354;" d="M197.005,148.4c-7.185,0-29.295,7.175-33.485,23.915c-1.625,6.49-5.745,27.215-9.46,46.405
						c58.025,13.845,103.185,74.9,56.86,166.65c0.145,0.7,0.43,1.36,0.43,2.13c0,1.34,0,2.355,0,3.245c0,0.32,0,0.685,0,0.945
						c0,4.79,2.39,19.13,16.74,19.13c14.355,0,27.915,0,27.915,0V148.4C238.06,148.4,204.175,148.4,197.005,148.4z"/>
				</g>
				<g>
					<path style="fill:#C6A78A;" d="M301.07,385.37c1.03-4.74,4.92-8.14,6.745-12.16c2.99-6.57,41.765-73.27,45.44-80.125
						c5.585-10.365,14.08-22.705,11.555-37.87c-0.56-3.395-3.56-19.325-6.87-36.495C299.91,232.565,254.745,293.62,301.07,385.37z"
						/>
					<path style="fill:#A87E47;" d="M314.99,148.4c-7.175,0-41.055,0-58.985,0v262.42c0,0,13.545,0,27.9,0
						c14.345,0,16.74-14.34,16.74-19.13c0-0.26,0-0.625,0-0.945c0-0.89,0-1.905,0-3.245c0-0.77,0.28-1.43,0.425-2.13
						c-46.325-91.75-1.16-152.805,56.87-166.65c-3.72-19.19-7.84-39.915-9.46-46.405C344.29,155.575,322.17,148.4,314.99,148.4z"/>
				</g>
			</g>
			<path style="fill:#7D4E22;" d="M282.31,375.735c0,11.02-8.93,19.945-19.935,19.945h-12.76c-11,0-19.93-8.925-19.93-19.945l0,0
				c0-11,8.93-19.92,19.93-19.92h12.76C273.38,355.815,282.31,364.735,282.31,375.735L282.31,375.735z"/>
			<g>
				<path style="fill:#7D4E22;" d="M176.47,252.48h-18.465l5.97,8.11c-0.765,1.71-1.21,3.595-1.21,5.59
					c0,7.565,6.14,13.71,13.705,13.71c7.555,0,13.685-6.145,13.685-13.71C190.155,258.62,184.025,252.48,176.47,252.48z"/>
				<path style="fill:#7D4E22;" d="M353.99,252.48h-18.46c-7.56,0-13.695,6.14-13.695,13.7c0,7.565,6.135,13.71,13.695,13.71
					c7.56,0,13.7-6.145,13.7-13.71c0-1.995-0.445-3.88-1.21-5.59L353.99,252.48z"/>
			</g>
		</g>
	</g>
</g>
</svg>
