<?xml version="1.0" encoding="iso-8859-1"?>
<!-- Generator: Adobe Illustrator 18.0.0, SVG Export Plug-In . SVG Version: 6.00 Build 0)  -->
<!DOCTYPE svg PUBLIC "-//W3C//DTD SVG 1.1//EN" "http://www.w3.org/Graphics/SVG/1.1/DTD/svg11.dtd">
<svg version="1.1" id="_x31_" xmlns="http://www.w3.org/2000/svg" xmlns:xlink="http://www.w3.org/1999/xlink" x="0px" y="0px"
	 viewBox="0 0 512 512" style="enable-background:new 0 0 512 512;" xml:space="preserve">
<g>
	<rect style="fill:#9CD1AB;" width="512" height="512"/>
	<polygon style="opacity:0.1;fill:#231815;" points="512,178.022 512,512 223.9,512 74.24,362.342 296.345,275.967 453.12,119.142 	
		"/>
	<g>
		<path style="fill:#766258;" d="M408.98,107.665c-8.41,4.808-23.12,14.068-35.51,21.978c-9.38-10.388-22.78-19.12-39.45-19.12
			c-2.98,0-48.02,0-51.54,0c-11.18,0-17.66,0.673-26.48,7.932c-8.82-7.26-15.29-7.932-26.47-7.932c-3.53,0-48.57,0-51.553,0
			c-16.665,0-30.06,8.733-39.448,19.12c-12.387-7.91-27.095-17.17-35.507-21.978c-24.11-13.783-63.547,9.415-49.425,52.955
			c5.252,16.202,26.182,32.03,53.59,37.747C90.51,243.783,70.615,300.725,68.363,307.485c-6.358,19.065-4.235,44.482,14.825,59.31
			c19.07,14.828,109.272,52.72,109.272,52.72h51.77H256h11.77h51.77c0,0,90.21-37.893,109.27-52.72
			c19.07-14.828,21.19-40.245,14.83-59.31c-2.25-6.76-22.15-63.702-38.82-109.118c27.4-5.717,48.33-21.545,53.58-37.747
			C472.53,117.08,433.09,93.882,408.98,107.665z"/>
		<g>
			<g>
				<path style="fill:#766258;" d="M160.093,143.555c0,0-40.598-26.475-57.07-35.89c-24.11-13.783-63.547,9.415-49.425,52.955
					c6.573,20.275,37.657,40.01,75.315,40.01L160.093,143.555z"/>
				<path style="fill:#BF9862;" d="M126.555,155.325c0,0-28.235-18.828-37.068-24.713c-6.23-4.155-21.18,20.005-2.35,37.658
					c12.748,11.95,35.89,6.47,35.89,6.47L126.555,155.325z"/>
				<path style="fill:#766258;" d="M177.977,110.522c-23.295,0-40.24,17.03-48.71,31.858
					c-8.478,14.825-57.295,154.283-60.905,165.105c-6.358,19.065-4.235,44.482,14.825,59.31
					c19.07,14.828,109.272,52.72,109.272,52.72h51.77H256v-301.06c-8.82-7.26-15.29-7.932-26.47-7.932
					C226,110.522,180.96,110.522,177.977,110.522z"/>
				<path style="fill:#604C3F;" d="M181.87,245.345c0,7.478-6.063,13.533-13.538,13.533c-7.475,0-13.53-6.055-13.53-13.533
					c0-7.472,6.055-13.528,13.53-13.528C175.807,231.817,181.87,237.873,181.87,245.345z"/>
			</g>
			<g>
				<path style="fill:#665146;" d="M351.91,143.555c0,0,40.6-26.475,57.07-35.89c24.11-13.783,63.55,9.415,49.42,52.955
					c-6.57,20.275-37.65,40.01-75.31,40.01L351.91,143.555z"/>
				<path style="fill:#BF9862;" d="M385.45,155.325c0,0,28.23-18.828,37.06-24.713c6.24-4.155,21.19,20.005,2.35,37.658
					c-12.74,11.95-35.89,6.47-35.89,6.47L385.45,155.325z"/>
				<path style="fill:#665146;" d="M334.02,110.522c23.3,0,40.25,17.03,48.72,31.858c8.47,14.825,57.29,154.283,60.9,165.105
					c6.36,19.065,4.24,44.482-14.83,59.31c-19.06,14.828-109.27,52.72-109.27,52.72h-51.77H256v-301.06
					c8.82-7.26,15.3-7.932,26.48-7.932C286,110.522,331.04,110.522,334.02,110.522z"/>
				<path style="fill:#49372E;" d="M330.14,245.345c0,7.478,6.05,13.533,13.53,13.533c7.47,0,13.53-6.055,13.53-13.533
					c0-7.472-6.06-13.528-13.53-13.528C336.19,231.817,330.14,237.873,330.14,245.345z"/>
			</g>
		</g>
		<g>
			<path style="fill:#DDBC99;" d="M248.94,381.855c-17.23,0-31.19-13.96-31.19-31.182c0-17.225,13.96-31.185,31.19-31.185H256
				v-79.232h-31.02c-14.07,0-26.61,8.237-31.26,20.548l-24.712,65.43c-2.5,6.627-2.475,13.85,0.07,20.455l14.173,36.775
				c4.71,12.21,17.19,20.365,31.19,20.365H256v-21.973H248.94z"/>
			<path style="fill:#DCB78B;" d="M342.99,326.233l-24.72-65.43c-4.64-12.31-17.18-20.548-31.25-20.548H256v79.232h7.06
				c17.22,0,31.19,13.96,31.19,31.185c0,17.223-13.97,31.182-31.19,31.182H256v21.973h41.56c13.99,0,26.48-8.155,31.18-20.365
				l14.18-36.775C345.47,340.082,345.49,332.86,342.99,326.233z"/>
			<path style="fill:#564237;" d="M263.06,381.855c17.22,0,31.19-13.96,31.19-31.182c0-17.225-13.97-31.185-31.19-31.185H256v62.367
				H263.06z"/>
			<path style="fill:#604C3F;" d="M217.75,350.672c0,17.223,13.96,31.182,31.19,31.182H256v-62.367h-7.06
				C231.71,319.487,217.75,333.447,217.75,350.672z"/>
		</g>
	</g>
</g>
</svg>
