<?xml version="1.0" encoding="iso-8859-1"?>
<!-- Generator: Adobe Illustrator 18.0.0, SVG Export Plug-In . SVG Version: 6.00 Build 0)  -->
<!DOCTYPE svg PUBLIC "-//W3C//DTD SVG 1.1//EN" "http://www.w3.org/Graphics/SVG/1.1/DTD/svg11.dtd">
<svg version="1.1" id="_x31_" xmlns="http://www.w3.org/2000/svg" xmlns:xlink="http://www.w3.org/1999/xlink" x="0px" y="0px"
	 viewBox="0 0 512 512" style="enable-background:new 0 0 512 512;" xml:space="preserve">
<g>
	<rect style="fill:#EBE5D3;" width="512" height="512"/>
	<path style="opacity:0.1;fill:#231815;" d="M512,217.6V512H217.139l-95.488-95.488l-47.258-47.309
		c-8.09-15.616-12.493-33.946-12.493-55.194c0-22.477,4.915-43.315,13.978-62.003l100.454-100.454
		c1.178,0.768,1.843,1.178,1.843,1.178h161.741c0,0,55.398-35.738,78.131-29.082L512,217.6z"/>
	<g>
		<g>
			<path style="fill:#796A56;" d="M456.141,314.01c0,95.13-88.218,131.43-197.12,131.43h-1.075
				c-52.992-0.102-101.018-8.858-136.294-28.928c-20.685-11.674-36.966-27.29-47.258-47.309
				c-8.09-15.616-12.493-33.946-12.493-55.194c0-22.477,4.915-43.315,13.978-62.003c5.069-10.701,11.52-20.685,19.098-29.901
				c-1.331-7.168-16.896-91.443,4.608-98.355c20.07-6.451,66.867,21.658,76.749,27.802c1.178,0.768,1.843,1.178,1.843,1.178h80.845
				l-1.075,0.461c0.358,0,0.717-0.051,1.075-0.051c0.41,0,0.768,0.051,1.126,0.051l-1.126-0.461h80.896
				c0,0,55.398-35.738,78.131-29.082c0.154,0,0.307,0.051,0.461,0.102c3.174,1.024,5.581,3.738,7.27,7.629
				c9.933,22.528-1.536,84.634-2.662,90.726C443.955,247.45,456.141,278.733,456.141,314.01z"/>
			<g>
				<path style="fill:#E0B196;" d="M116.395,191.668c-1.01-10.82-1.41-31.102-1.095-38.245c8.84,2.618,27.79,8.328,37.93,13.748
					L116.395,191.668z"/>
				<path style="fill:#E0B196;" d="M364.825,167.162c10.57-5.65,29.44-11.215,37.955-13.76c0.32,7.153-0.08,27.445-1.09,38.272
					L364.825,167.162z"/>
			</g>
			<path style="fill:#FFFFFF;" d="M349.26,340.085c-25.775-29.455-77.33-156.34-77.33-156.34h-12.89h-12.895
				c0,0-51.55,126.885-77.33,156.34c-24.865,28.412-19.165,89.497,84.37,93.77l-0.005,0.255c2.01,0,3.91-0.065,5.86-0.102
				c1.95,0.037,3.85,0.102,5.86,0.102l-0.005-0.255C368.425,429.582,374.125,368.498,349.26,340.085z"/>
			<path style="fill:#796A56;" d="M295.085,364.86l-29.245-13.295v-18.28c0-3.752-3.05-6.795-6.8-6.795c-3.75,0-6.8,3.042-6.8,6.795
				v18.28l-29.245,13.295c-3.415,1.555-4.925,5.585-3.37,9c1.555,3.418,5.575,4.93,9,3.378l30.415-13.825l30.415,13.825
				c3.425,1.552,7.445,0.04,9-3.378C300.01,370.445,298.5,366.417,295.085,364.86z"/>
			<ellipse style="fill:#E0B196;" cx="259.04" cy="303.077" rx="46.45" ry="30.585"/>
			<g>
				<g>
					<path style="fill:#796A56;" d="M242.14,317.22c2.51,4,1.95,8.855-1.23,10.848c-3.175,1.988-7.79,0.357-10.29-3.642
						c-2.5-4-1.95-8.858,1.23-10.843C235.035,311.592,239.645,313.218,242.14,317.22z"/>
				</g>
				<g>
					<path style="fill:#796A56;" d="M275.94,317.22c-2.51,4-1.95,8.855,1.23,10.848c3.175,1.988,7.79,0.357,10.29-3.642
						c2.5-4,1.95-8.858-1.23-10.843C283.045,311.592,278.435,313.218,275.94,317.22z"/>
				</g>
			</g>
			<g>
				<g>
					<path style="fill:#FFFFFF;" d="M167.03,245.652c-16.305-3.588-32.245,4.302-38.335,18.03
						c-0.225,15.015,10.93,28.865,27.235,32.45c16.307,3.588,32.25-4.303,38.335-18.03
						C194.495,263.09,183.335,249.238,167.03,245.652z"/>
					<path style="fill:#796A56;" d="M173.383,270.825c0-7.858-5.243-14.392-12.168-15.805c-6.92,1.413-12.16,7.947-12.16,15.805
						c0,7.85,5.24,14.383,12.16,15.795C168.14,285.208,173.383,278.675,173.383,270.825z"/>
				</g>
				<g>
					<path style="fill:#FFFFFF;" d="M351.05,245.652c16.3-3.588,32.24,4.302,38.335,18.03c0.225,15.015-10.93,28.865-27.235,32.45
						c-16.3,3.588-32.245-4.303-38.335-18.03C323.585,263.09,334.745,249.238,351.05,245.652z"/>
					<path style="fill:#796A56;" d="M344.7,270.825c0-7.858,5.24-14.392,12.17-15.805c6.925,1.413,12.16,7.947,12.16,15.805
						c0,7.85-5.235,14.383-12.16,15.795C349.94,285.208,344.7,278.675,344.7,270.825z"/>
				</g>
			</g>
		</g>
		<g style="opacity:0.1;">
			<path style="fill:#231815;" d="M456.141,314.01c0,95.13-88.218,131.43-197.12,131.43h-1.075V153.19
				c0.358,0,0.717-0.051,1.075-0.051c0.41,0,0.768,0.051,1.126,0.051l-1.126-0.461h80.896c0,0,55.398-35.738,78.131-29.082
				c0.154,0,0.307,0.051,0.461,0.102c3.174,1.024,5.581,3.738,7.27,7.629c9.933,22.528-1.536,84.634-2.662,90.726
				C443.955,247.45,456.141,278.733,456.141,314.01z"/>
			<polygon style="fill:#231815;" points="259.021,152.73 257.946,153.19 257.946,152.73 			"/>
		</g>
	</g>
</g>
</svg>
