<?xml version="1.0" encoding="iso-8859-1"?>
<!-- Generator: Adobe Illustrator 18.0.0, SVG Export Plug-In . SVG Version: 6.00 Build 0)  -->
<!DOCTYPE svg PUBLIC "-//W3C//DTD SVG 1.1//EN" "http://www.w3.org/Graphics/SVG/1.1/DTD/svg11.dtd">
<svg version="1.1" id="_x31_" xmlns="http://www.w3.org/2000/svg" xmlns:xlink="http://www.w3.org/1999/xlink" x="0px" y="0px"
	 viewBox="0 0 512 512" style="enable-background:new 0 0 512 512;" xml:space="preserve">
<g>
	<rect style="fill:#9CD1AB;" width="512" height="512"/>
	<path style="opacity:0.1;fill:#231815;" d="M510.31,142.592V512H264.038l-45.926-45.158l-63.488-62.362h-0.051v-0.051l-2.15-2.048
		l-5.632-5.581l-13.466-13.261l-3.226-3.174c-1.331-3.379-2.15-6.963-2.458-10.803c-0.154-2.202-0.102-4.352,0.154-6.451
		c0.563-4.915,2.202-9.677,4.864-14.131l-0.717-1.741l-17.101-43.469c-2.202-5.53-2.97-11.418-2.355-17.203v-0.051
		c0.358-3.686,1.28-7.373,2.816-10.854l8.909-20.582c-0.563-0.358-1.178-0.717-1.741-1.075c-12.595-7.68-25.344-15.667-33.28-21.299
		c-7.782-5.478-13.261-12.851-16.998-20.787l2.202-2.15l23.962-23.501l1.126-1.075l52.838-51.917l5.376-5.325l13.261-13.107
		l4.71-4.608l5.478-5.376c0.358,0.256,0.717,0.512,1.075,0.768c22.426,15.718,28.006,45.978,28.006,52.685v5.581h88.525v-5.581
		c0-6.707,5.632-36.966,28.058-52.685c22.374-15.667,73.216-40.55,84.019-45.926c3.43-1.69,7.834-2.765,12.288-2.816l20.122,19.814
		L510.31,142.592z"/>
	<g>
		<g>
			<rect x="157.594" y="163.891" style="fill:#FFFFFF;" width="182.272" height="230.861"/>
			<path style="fill:#D6D7D7;" d="M348.815,378.655c0,31.58-25.6,57.177-57.18,57.177h-67.92c-31.58,0-57.175-25.597-57.175-57.177
				v14.247c0-31.575,25.595-57.17,57.175-57.17h67.92c31.58,0,57.18,25.595,57.18,57.17V378.655z"/>
			<g>
				<g>
					<path style="fill:#231815;" d="M210.227,158.31v5.581c0,17.306,0,65.024,0,65.024l-23.194,20.019l-6.758,5.837l-19.354,16.691
						c0,0-1.229-0.717-3.328-1.997c-1.741-0.973-4.045-2.355-6.758-3.994c-2.509-1.485-5.325-3.174-8.397-5.018
						c-5.478-3.277-11.674-7.066-18.022-10.957c-13.21-8.141-26.829-16.845-35.174-22.835c-6.349-4.608-11.213-10.496-14.848-16.896
						c-0.768-1.434-1.536-2.867-2.202-4.352c-4.659-10.035-6.502-20.992-6.502-30.31V77.619c0-22.426,21.299-23.501,32.512-17.92
						c9.933,4.915,53.453,26.266,77.875,41.83c1.843,1.178,3.533,2.304,5.069,3.328c0.358,0.256,0.717,0.512,1.075,0.768
						C204.646,121.344,210.227,151.603,210.227,158.31z"/>
					<path style="fill:#E6D1C9;" d="M155.68,231.553c-12.275-7.335-34.773-20.958-45.21-28.497
						c-9.055-6.54-12.28-18.873-12.28-28.238v-48.555c0-6.205,3.255-11.955,8.585-15.135c5.325-3.183,11.93-3.33,17.397-0.388
						c0,0,26.543,11.882,41.398,22.28c12.155,8.512,15.44,26.16,15.54,29.057v47.512L155.68,231.553z"/>
				</g>
				<path style="fill:#231815;" d="M158.208,402.022l13.21-0.358l7.68-0.205c-0.256-2.304-0.512-4.506-0.768-6.707
					c-1.382-13.722-1.485-25.446-0.666-35.686c1.587-19.456,6.502-33.792,12.749-47.514c14.797-32.666,36.659-61.798,36.659-147.661
					h-16.845h-24.115c-1.69,0-3.379,0.102-5.018,0.358c-9.165,1.178-17.51,5.683-23.501,12.493
					c-2.714,3.021-4.915,6.502-6.554,10.342l-14.131,33.075l-12.493,29.338l-1.946,4.506l-7.014,16.538
					c-2.15,5.12-3.174,10.547-2.97,15.974v0.051c0.102,4.301,0.922,8.602,2.509,12.698l17.92,46.182l21.402,55.194L158.208,402.022z
					"/>
				<g>
					<path style="fill:#FFFFFF;" d="M193.435,265.88c0,14.237-11.535,25.775-25.767,25.775c-14.243,0-25.78-11.538-25.78-25.775
						c0-14.235,11.537-25.773,25.78-25.773C181.9,240.107,193.435,251.645,193.435,265.88z"/>
					<path style="fill:#231815;" d="M184.47,265.88c0,9.283-7.53,16.807-16.802,16.807c-9.293,0-16.815-7.525-16.815-16.807
						c0-9.28,7.522-16.81,16.815-16.81C176.94,249.07,184.47,256.6,184.47,265.88z"/>
				</g>
			</g>
			<g>
				<g>
					<path style="fill:#231815;" d="M443.29,77.619v97.485c0,16.794-6.042,38.963-23.501,51.558
						c-0.512,0.358-1.075,0.768-1.638,1.178c-0.563,0.41-1.126,0.768-1.741,1.229c-2.97,2.048-6.451,4.352-10.138,6.758
						c-1.997,1.28-4.045,2.611-6.195,3.994c-5.018,3.174-10.291,6.451-15.514,9.677c-6.349,3.891-12.595,7.68-18.022,11.008
						c-3.072,1.792-5.939,3.533-8.397,5.018c-6.144,3.635-10.086,5.939-10.086,5.939l-8.192-7.066l-11.11-9.574l-6.81-5.888
						l-23.194-20.019c0,0,0-47.718,0-65.024v-5.581c0-6.707,5.632-36.966,28.058-52.685c22.374-15.667,73.216-40.55,84.019-45.926
						c3.43-1.69,7.834-2.765,12.288-2.816c9.779-0.102,19.763,4.966,20.122,19.814C443.29,77.005,443.29,77.312,443.29,77.619z"/>
					<path style="fill:#E6D1C9;" d="M353.33,231.553c12.27-7.335,34.77-20.958,45.21-28.497c9.055-6.54,12.28-18.873,12.28-28.238
						v-48.555c0-6.205-3.26-11.955-8.59-15.135c-5.32-3.183-11.925-3.33-17.389-0.388c0,0-26.545,11.882-41.4,22.28
						c-12.155,8.512-15.44,26.16-15.54,29.057v47.512L353.33,231.553z"/>
				</g>
				<path style="fill:#231815;" d="M394.035,299.264l-16.742,43.11v0.051l-0.051,0.102l-23.04,59.443l-0.051,0.154h-0.461
					l-9.779-0.307l-13.978-0.358c0.256-2.304,0.512-4.506,0.768-6.707c1.741-17.51,1.485-31.693-0.205-43.827
					c-2.202-15.77-6.758-28.16-12.186-40.141c-14.797-32.358-36.352-61.747-36.352-146.893h40.909c1.69,0,3.379,0.102,5.018,0.358
					c4.198,0.512,8.243,1.792,11.981,3.635c7.936,3.942,14.438,10.65,18.074,19.2l14.131,33.126l12.493,29.286l8.96,21.043
					C397.414,279.706,397.619,289.997,394.035,299.264z"/>
				<g>
					<path style="fill:#FFFFFF;" d="M315.58,265.88c0,14.237,11.535,25.775,25.765,25.775c14.235,0,25.775-11.538,25.775-25.775
						c0-14.235-11.54-25.773-25.775-25.773C327.115,240.107,315.58,251.645,315.58,265.88z"/>
					<path style="fill:#231815;" d="M324.54,265.88c0,9.283,7.53,16.807,16.805,16.807c9.285,0,16.815-7.525,16.815-16.807
						c0-9.28-7.53-16.81-16.815-16.81C332.07,249.07,324.54,256.6,324.54,265.88z"/>
				</g>
			</g>
			<path style="fill:#EAE9E9;" d="M384.358,366.49c-0.102,0.973-0.205,1.997-0.307,2.918c-0.205,1.178-0.41,2.253-0.666,3.379
				c-0.256,0.922-0.512,1.894-0.819,2.816c-0.307,0.973-0.666,1.894-1.024,2.816c-0.307,0.666-0.563,1.331-0.922,1.997
				c-0.614,1.229-1.28,2.406-1.946,3.533c-0.512,0.768-0.973,1.485-1.536,2.202c-2.406,3.277-5.376,6.195-8.755,8.704
				c-0.666,0.461-1.331,0.922-2.048,1.382c-0.973,0.666-1.997,1.28-3.072,1.843c-0.922,0.512-1.894,0.973-2.867,1.434
				c-1.946,0.973-4.045,1.741-6.195,2.458c-0.154,0.051-0.307,0.102-0.461,0.154h-0.051c-1.587,0.512-3.226,0.922-4.864,1.28
				c-0.768,0.205-1.536,0.358-2.355,0.461c-0.768,0.154-1.587,0.307-2.406,0.41c-0.461,0.051-0.922,0.154-1.382,0.154l-0.051,0.051
				c-11.059,1.382-23.603,0.102-36.71-4.301c-4.403-1.485-8.448-3.328-12.134-5.427c-30.515-17.357-37.12-52.224-37.12-52.224
				l-0.154-6.81l-0.102-4.915l-0.205-8.96l-0.102-4.608l-0.307,13.568l-0.154,4.915l-0.154,6.81c0,0-1.126,5.99-4.608,14.234
				c-4.915,11.674-14.592,27.853-32.512,37.99c-3.686,2.099-7.731,3.942-12.134,5.427c-11.827,3.994-23.142,5.376-33.382,4.608
				c-5.222-0.358-10.138-1.331-14.643-2.765c-1.331-0.41-2.611-0.87-3.891-1.382c-0.512-0.205-1.075-0.461-1.587-0.666
				c-10.65-4.71-18.637-12.544-22.426-22.477c-1.331-3.43-2.15-7.117-2.458-11.008c-0.563-7.424,1.229-14.49,5.069-21.043
				c4.915-8.397,13.312-15.872,24.678-21.965c9.114-4.915,20.122-8.96,32.819-11.93c9.062-2.15,19.046-3.686,29.747-4.608
				c0.768-0.051,1.536-0.154,2.304-0.154c13.619-1.178,22.63-1.741,28.416-1.997c1.434-0.051,2.662-0.102,3.686-0.102
				c0.41-0.051,0.87-0.051,1.434-0.051c0,0,0.051,0,0.102,0c0,0,0.051,0,0.102,0c0.512,0,0.973,0,1.382,0.051
				c5.427,0.102,15.206,0.666,32.307,2.099c0.666,0.051,1.382,0.102,2.099,0.154c9.37,0.819,18.176,2.099,26.317,3.84
				c7.782,1.638,15.002,3.686,21.555,6.144c17.254,6.298,30.054,15.053,37.427,25.446v0.051c3.584,4.966,5.837,10.291,6.707,15.872
				c0.154,0.922,0.256,1.894,0.358,2.816C384.461,362.906,384.512,364.698,384.358,366.49z"/>
			<g>
				<path style="fill:#231815;" d="M256.18,330.803c-12.1,0-5.64-14.523-13.71-15.33c-8.07-0.807-6.46,8.063-3.23,12.1
					c1.615,3.23-16.935,0-16.935-17.753c0-20.975,19.355-27.427,33.875-27.427V330.803z"/>
				<path style="fill:#231815;" d="M256.18,330.803c12.105,0,5.65-14.523,13.72-15.33c8.065-0.807,6.45,8.063,3.23,12.1
					c-1.615,3.23,16.94,0,16.94-17.753c0-20.975-19.36-27.427-33.89-27.427V330.803z"/>
			</g>
		</g>
		<path style="opacity:0.08;fill:#231815;" d="M443.29,77.619v97.485c0,16.794-6.042,38.963-23.501,51.558
			c-0.512,0.358-1.075,0.768-1.638,1.178c-0.563,0.358-1.126,0.768-1.741,1.229c-2.97,2.048-6.451,4.352-10.138,6.758
			c-1.997,1.28-4.045,2.611-6.195,3.994c-5.018,3.174-10.291,6.451-15.514,9.677l8.96,21.043c3.891,9.165,4.096,19.456,0.512,28.723
			l-16.742,43.11v0.051l-0.051,0.051v0.051c3.533,4.915,5.786,10.24,6.758,15.77c0.41,2.662,0.563,5.427,0.358,8.192
			c-0.102,1.075-0.205,2.099-0.358,3.123c-0.154,1.024-0.358,2.048-0.614,3.072c-3.277,13.926-14.08,24.422-29.184,29.286
			l-0.051,0.154h-0.461c-1.587,0.512-3.226,0.922-4.864,1.28c-0.768,0.205-1.536,0.358-2.355,0.461
			c-0.768,0.154-1.587,0.307-2.406,0.41c-0.256,0.051-0.461,0.102-0.717,0.102c-0.205,0.051-0.461,0.051-0.666,0.102h-0.051
			c-0.614,1.178-1.229,2.304-1.894,3.43s-1.331,2.202-2.099,3.277c-0.717,1.024-1.485,2.099-2.304,3.072
			c-0.768,0.973-1.587,1.894-2.355,2.816c-0.102,0.051-0.102,0.102-0.154,0.154c-0.87,0.922-1.792,1.843-2.714,2.765
			c-1.894,1.741-3.891,3.43-5.939,4.915c-0.973,0.717-1.997,1.434-3.021,2.048c-1.178,0.768-2.355,1.485-3.584,2.099
			c-1.024,0.563-2.099,1.126-3.174,1.587c-3.226,1.485-6.605,2.662-10.086,3.533c-0.717,0.154-1.434,0.307-2.15,0.461
			c-0.922,0.205-1.843,0.358-2.816,0.512c-0.717,0.102-1.434,0.205-2.15,0.256c-0.819,0.154-1.69,0.205-2.509,0.256
			c-1.331,0.102-2.662,0.154-4.045,0.154H250.88V163.891h47.872v-5.581c0-6.707,5.632-36.966,28.058-52.685
			c22.374-15.667,73.216-40.55,84.019-45.926c3.43-1.69,7.834-2.765,12.288-2.816c9.779-0.102,19.763,4.966,20.122,19.814
			C443.29,77.005,443.29,77.312,443.29,77.619z"/>
	</g>
</g>
</svg>
