<?xml version="1.0" encoding="iso-8859-1"?>
<!-- Generator: Adobe Illustrator 18.0.0, SVG Export Plug-In . SVG Version: 6.00 Build 0)  -->
<!DOCTYPE svg PUBLIC "-//W3C//DTD SVG 1.1//EN" "http://www.w3.org/Graphics/SVG/1.1/DTD/svg11.dtd">
<svg version="1.1" id="_x31_" xmlns="http://www.w3.org/2000/svg" xmlns:xlink="http://www.w3.org/1999/xlink" x="0px" y="0px"
	 viewBox="0 0 512 512" style="enable-background:new 0 0 512 512;" xml:space="preserve">
<g>
	<rect style="fill:#FDFCE8;" width="512" height="512"/>
	<polygon style="opacity:0.1;fill:#231815;" points="512,190.565 512,512 188.93,512 95.437,418.505 167.527,168.345 
		435.045,113.61 	"/>
	<g>
		<path style="fill:#A9BFC6;" d="M341.87,132.74v149.235c0,42.64-23.69,40.275-40.275,40.275c-16.58,0-61.595,0-61.595,0
			s-47.365,0-71.055,0c-23.69,0-21.32,26.06-21.32,33.165v8.56c0,6.315,5.115,12.635,11.735,12.635c1.765,0,2.355,0,2.355,0
			c11.365-0.12,11.365-4.705,11.365-11.72c0-7.11,0-14.21,0-14.21s16.585,0,28.43,0c11.85,0,18.955-11.85,40.855-11.85
			c0,0,0,18.95,0,45.615c0,26.645-26.64,47.965-47.96,47.965H120.38c-10.6,0-20.55-3.965-28.48-10.39
			c-2.87-2.32-5.475-4.975-7.75-7.885c-6.21-7.915-9.965-17.685-9.965-27.92v-78.18c0-21.32,4.735-37.905,11.845-56.845
			c7.105-18.95,35.535-87.655,42.64-104.235c7.115-16.585,23.69-45.01,56.855-45.01c0,0,90.01,0,118.44,0
			C332.39,101.945,341.87,118.53,341.87,132.74z"/>
		<g>
			<path style="fill:#BAD0D5;" d="M100.925,334.9c0,3.045-2.485,5.53-5.53,5.53h-21.21v-11.055h21.21
				C98.44,329.375,100.925,331.85,100.925,334.9z"/>
			<path style="fill:#BAD0D5;" d="M100.925,374.385c0,3.05-2.485,5.525-5.53,5.525h-21.21v-11.055h21.21
				C98.44,368.855,100.925,371.34,100.925,374.385z"/>
			<path style="fill:#BAD0D5;" d="M139.62,417.815v14.595h-11.06v-14.595c0-3.045,2.48-5.525,5.53-5.525
				C137.135,412.29,139.62,414.77,139.62,417.815z"/>
			<path style="fill:#BAD0D5;" d="M182.26,417.815v14.595h-11.055v-14.595c0-3.045,2.48-5.525,5.525-5.525
				C179.78,412.29,182.26,414.77,182.26,417.815z"/>
			<path style="fill:#BAD0D5;" d="M102.265,411.66L91.9,422.02c-2.87-2.32-5.475-4.975-7.75-7.885l10.3-10.295
				c2.16-2.17,5.65-2.17,7.815,0C104.425,406.005,104.425,409.49,102.265,411.66z"/>
		</g>
		<path style="fill:#75949B;" d="M197.265,221.185c0,6.545-5.305,11.85-11.85,11.85l0,0c-6.54,0-11.85-5.305-11.85-11.85l0,0
			c0-6.54,5.31-11.85,11.85-11.85l0,0C191.96,209.335,197.265,214.645,197.265,221.185L197.265,221.185z"/>
		<g>
			<path style="fill:#A99288;" d="M437.815,153.575v-31.05c0-11.365-9.22-20.58-20.585-20.58h-141
				c-11.365,0-20.585,9.215-20.585,20.58v213.22l67.57-67.57L437.815,153.575z"/>
			<path style="fill:#9D8477;" d="M323.215,268.175l-67.57,67.57v20.41c0,11.365,9.22,20.585,20.585,20.585h141
				c11.365,0,20.585-9.22,20.585-20.585v-202.58L323.215,268.175z"/>
		</g>
	</g>
</g>
</svg>
