<?xml version="1.0" encoding="iso-8859-1"?>
<!-- Generator: Adobe Illustrator 18.0.0, SVG Export Plug-In . SVG Version: 6.00 Build 0)  -->
<!DOCTYPE svg PUBLIC "-//W3C//DTD SVG 1.1//EN" "http://www.w3.org/Graphics/SVG/1.1/DTD/svg11.dtd">
<svg version="1.1" id="_x31_" xmlns="http://www.w3.org/2000/svg" xmlns:xlink="http://www.w3.org/1999/xlink" x="0px" y="0px"
	 viewBox="0 0 512 512" style="enable-background:new 0 0 512 512;" xml:space="preserve">
<g>
	<rect style="fill:#9CD1AB;" width="512" height="512"/>
	<path style="opacity:0.1;fill:#231815;" d="M371.302,109.414c0,0-0.051-0.051-0.051-0.102l-25.498-25.498
		c-2.355,3.686-10.138,15.002-18.995,27.802c-15.411,22.323-34.355,49.357-34.355,49.357H248.32l-7.424,7.424L187.699,115.2
		l-5.018-5.018l-26.163-26.163c-9.165,6.656-20.838,26.931-20.07,57.549c0.051,2.816,0.154,5.53,0.307,8.09
		c1.843,37.734,8.806,47.77,8.806,47.77s-15.104,20.275-29.03,54.886l20.232,20.216l-37.179,37.179l-3.994,26.624l1.178,1.178
		l0.358,0.358l2.611,2.611l67.994,67.994l1.69,1.69l-7.066,7.014L257.229,512h14.08h194.15H512V250.061L371.302,109.414z"/>
	<g>
		<g>
			<path style="fill:#EAEFEE;" d="M255.998,385.502l-72.248-13.649c5.625,19.267,13.646,58.599,72.248,58.599
				c58.606,0,66.622-39.332,72.252-58.599L255.998,385.502z"/>
			<path style="fill:#F5C87A;" d="M416.563,337.613l-0.87-0.051l-1.126-0.051h-0.102l-4.762-0.307l-28.467-1.741l-6.451,28.877
				l-33.178-4.25l-8.806,17.664l-1.894,3.738l-5.018-1.485l-7.424-2.253l-8.294-2.458h-0.051l-11.315-3.43h-85.606l-11.315,3.43
				h-0.051l-8.294,2.458l-7.424,2.253l-5.018,1.485l-1.843-3.738l-8.858-17.664l-33.178,4.25l-6.451-28.877l-33.28,2.048h-0.717
				l-0.461,0.051l-0.87,0.051c0.051-0.41,0.102-0.87,0.154-1.28c0.973-9.267,2.355-18.125,3.994-26.624
				c4.25-21.914,10.496-41.216,16.947-57.395c13.926-34.611,29.03-54.886,29.03-54.886s-6.963-10.035-8.806-47.77
				c-0.154-2.56-0.256-5.274-0.307-8.09c-0.768-30.618,10.906-50.893,20.07-57.549c4.147-3.072,7.782-3.328,9.523-0.512
				c2.15,3.379,10.086,14.95,19.2,28.109c0.819,1.178,1.638,2.355,2.458,3.584c14.899,21.504,31.898,45.773,31.898,45.773h72.806
				c0,0,18.944-27.034,34.355-49.357c8.858-12.8,16.64-24.115,18.995-27.802c0.102-0.102,0.154-0.205,0.205-0.307
				c4.096-6.502,18.074,3.328,25.293,25.805c0,0.051,0.051,0.102,0.051,0.102c2.816,8.858,4.557,19.661,4.25,32.154
				c-0.051,2.816-0.154,5.53-0.307,8.09c-1.843,37.734-8.806,47.77-8.806,47.77S407.962,253.082,416.563,337.613z"/>
			<path style="fill:#FEFEFF;" d="M345.412,330.121c-30.819,16.51-82.462,43.004-86.049,44.839l-3.366,0.113l-3.366-0.113
				c-3.582-1.835-55.226-28.328-86.049-44.839c-26.893-14.418-56.04-12.169-71.565,10.631l34.278-2.088l6.393,28.894l33.033-4.27
				l10.641,21.418l15.172-4.57c4.698,11.126,15.219,31.221,61.463,31.221c46.249,0,56.77-20.096,61.468-31.221l15.172,4.57
				l10.638-21.418l33.036,4.27l6.388-28.894l34.284,2.088C401.458,317.952,372.31,315.703,345.412,330.121z"/>
			<path style="fill:#71605B;" d="M275.589,365.153c-4.166,0-19.596,0-19.596,0s-15.426,0-19.582,0
				c-11.679,0-19.178,14.174-10.012,25.848c11.434,14.555,22.096,15.004,29.595,15.004c7.499,0,18.166-0.45,29.595-15.004
				C294.767,379.326,287.273,365.153,275.589,365.153z"/>
			<g>
				<g>
					<path style="fill:#FEFEFF;" d="M320.883,166.656c0,0,13.152-18.084,17.61-23.205c4.454-5.122,11.566-2.123,13.426,5.126
						c2.956,11.505,3.092,25.815-5.978,36.293C343.662,183.731,320.883,166.656,320.883,166.656z"/>
					<path style="fill:#71605B;" d="M375.552,141.568c-0.051,2.816-0.154,5.53-0.307,8.09
						c-3.533-20.173-16.794-57.037-48.486-38.042c8.858-12.8,16.64-24.115,18.995-27.802c0.102-0.102,0.154-0.205,0.205-0.307
						c4.096-6.502,18.074,3.328,25.293,25.805c0,0.051,0.051,0.102,0.051,0.102C374.118,118.272,375.859,129.075,375.552,141.568z"
						/>
				</g>
				<path style="fill:#FEFEFF;" d="M191.117,166.656c0,0-13.152-18.084-17.612-23.205c-4.453-5.122-11.568-2.123-13.422,5.126
					c-2.954,11.505-3.098,25.815,5.973,36.293C168.34,183.731,191.117,166.656,191.117,166.656z"/>
				<path style="fill:#71605B;" d="M185.242,111.616c-0.87-0.512-1.741-1.024-2.56-1.434c-29.85-15.514-42.496,19.866-45.926,39.475
					c-0.154-2.56-0.256-5.274-0.307-8.09c-0.768-30.618,10.906-50.893,20.07-57.549c4.147-3.072,7.782-3.328,9.523-0.512
					C168.192,86.886,176.128,98.458,185.242,111.616z"/>
			</g>
			<g>
				<g>
					<path style="fill:#564236;" d="M191.06,273.577h-16.902l5.466,7.412c-0.706,1.572-1.114,3.292-1.114,5.116
						c0,6.929,5.62,12.55,12.55,12.55c6.924,0,12.54-5.621,12.54-12.55C203.601,279.19,197.985,273.577,191.06,273.577z"/>
				</g>
				<g>
					<path style="fill:#564236;" d="M320.939,273.577h16.904l-5.47,7.412c0.716,1.572,1.111,3.292,1.111,5.116
						c0,6.929-5.606,12.55-12.546,12.55c-6.919,0-12.54-5.621-12.54-12.55C308.399,279.19,314.02,273.577,320.939,273.577z"/>
				</g>
			</g>
			<path style="opacity:0.13;fill:#564236;" d="M416.973,340.736l-34.253-2.048l-6.4,28.877l-33.024-4.301l-7.168,14.49
				l-1.997,3.994l-1.485,2.97l-7.475-2.253c-0.41,1.28-0.819,2.56-1.28,3.891c-1.178,3.277-2.56,6.758-4.301,10.138
				c-0.563,1.178-1.178,2.355-1.894,3.482v0.051c-0.102,0.205-0.205,0.358-0.307,0.512c-0.358,0.666-0.768,1.382-1.229,2.048
				c-0.41,0.666-0.87,1.331-1.331,1.997c-4.762,6.912-11.366,13.363-20.787,18.074c-0.922,0.461-1.843,0.922-2.816,1.331
				c-0.922,0.41-1.843,0.768-2.816,1.126c-1.587,0.614-3.226,1.178-4.966,1.741c-2.15,0.614-4.454,1.229-6.912,1.69
				c-1.331,0.256-2.765,0.512-4.25,0.717c-0.973,0.154-1.894,0.307-2.918,0.41c-1.024,0.154-2.048,0.256-3.123,0.307
				c-1.024,0.102-2.15,0.205-3.226,0.256c-0.819,0.051-1.638,0.102-2.509,0.102c-1.485,0.051-2.97,0.102-4.506,0.102
				c-0.717,0-1.331-0.051-2.048-0.051V160.973h38.451c0,0,18.944-27.034,34.355-49.357c8.858-12.8,16.64-24.115,18.995-27.802
				c0.102-0.102,0.154-0.205,0.205-0.307c4.096-6.502,18.074,3.328,25.293,25.805c0,0.051,0.051,0.102,0.051,0.102
				c2.816,8.858,4.557,19.661,4.25,32.154c-0.051,2.816-0.154,5.53-0.307,8.09c-1.843,37.734-8.806,47.77-8.806,47.77
				s41.523,55.654,50.125,140.186l-0.87-0.051l-1.178-0.102h-0.051v0.051h0.051c0.41,0.512,0.819,1.024,1.229,1.587
				C416.154,339.61,416.563,340.173,416.973,340.736z"/>
		</g>
		<g>
			<g>
				<path style="fill:#C0B495;" d="M212.559,377.754h-67.355c-1.099,0-1.989,0.888-1.989,1.989c0,1.099,0.89,1.991,1.989,1.991
					h67.355c1.106,0,1.991-0.892,1.991-1.991C214.55,378.642,213.665,377.754,212.559,377.754L212.559,377.754z"/>
				<path style="fill:#C0B495;" d="M212.479,367.8l-57.954-22.143c-1.026-0.39-2.175,0.122-2.568,1.154
					c-0.39,1.026,0.122,2.174,1.144,2.568l57.952,22.143c1.026,0.388,2.179-0.122,2.575-1.153
					C214.013,369.342,213.505,368.194,212.479,367.8L212.479,367.8z"/>
				<path style="fill:#C0B495;" d="M212.125,386.917l-55.81,27.07c-0.993,0.478-1.405,1.671-0.93,2.659
					c0.487,0.989,1.679,1.403,2.667,0.921l55.805-27.07c0.994-0.478,1.408-1.666,0.927-2.66
					C214.305,386.849,213.114,386.437,212.125,386.917L212.125,386.917z"/>
			</g>
			<g>
				<path style="fill:#C0B495;" d="M299.441,377.754h67.361c1.097,0,1.986,0.888,1.986,1.989c0,1.099-0.89,1.991-1.986,1.991
					h-67.361c-1.097,0-1.987-0.892-1.987-1.991C297.454,378.642,298.344,377.754,299.441,377.754L299.441,377.754z"/>
				<path style="fill:#C0B495;" d="M299.53,367.8l57.947-22.143c1.022-0.39,2.175,0.122,2.566,1.154
					c0.396,1.026-0.118,2.174-1.144,2.568l-57.946,22.143c-1.026,0.388-2.18-0.122-2.575-1.153
					C297.991,369.342,298.505,368.194,299.53,367.8L299.53,367.8z"/>
				<path style="fill:#C0B495;" d="M299.879,386.917l55.81,27.07c0.989,0.478,1.408,1.671,0.923,2.659
					c-0.48,0.989-1.671,1.403-2.66,0.921l-55.805-27.07c-0.993-0.478-1.408-1.666-0.932-2.66
					C297.7,386.849,298.89,386.437,299.879,386.917L299.879,386.917z"/>
			</g>
		</g>
	</g>
</g>
</svg>
