<?xml version="1.0" encoding="iso-8859-1"?>
<!-- Generator: Adobe Illustrator 18.0.0, SVG Export Plug-In . SVG Version: 6.00 Build 0)  -->
<!DOCTYPE svg PUBLIC "-//W3C//DTD SVG 1.1//EN" "http://www.w3.org/Graphics/SVG/1.1/DTD/svg11.dtd">
<svg version="1.1" id="_x31_" xmlns="http://www.w3.org/2000/svg" xmlns:xlink="http://www.w3.org/1999/xlink" x="0px" y="0px"
	 viewBox="0 0 512 512" style="enable-background:new 0 0 512 512;" xml:space="preserve">
<g>
	<rect style="fill:#8AC887;" width="512" height="512"/>
	<polygon style="opacity:0.1;fill:#231815;" points="512,182.065 512,512 249.19,512 81.46,344.32 101.12,324.66 54.17,277.76 
		246.17,85.76 328.96,168.5 413.695,83.765 	"/>
	<g>
		<g>
			<g>
				<path style="fill:#A87E47;" d="M460.115,277.715c0,0-60.565-151.03-87.48-180.81c-26.915-29.785-76.26-23.4-116.635-23.4
					s-89.72-6.385-116.635,23.4c-26.92,29.78-87.48,180.81-87.48,180.81l38.135,8.51L78.8,343.66l47.105-4.26l1.12,47.86
					l41.495-5.315l6.73,44.675l44.865-17.02L256,443.635l35.885-34.035l44.865,17.02l6.73-44.675l41.495,5.315l1.12-47.86
					l47.105,4.26l-11.215-57.435L460.115,277.715z"/>
				<polygon style="fill:#BF9862;" points="184.225,315.78 211.145,376.345 256,376.345 256,315.78 				"/>
				<g>
					<polygon style="fill:#BF9862;" points="256,158.77 173.01,138.585 129.27,242.885 186.47,324.755 256,266.435 					"/>
					<polygon style="fill:#CEA675;" points="256,226.06 256,333.73 202.165,358.4 170.77,333.73 226.84,228.3 					"/>
				</g>
				<g>
					<polygon style="fill:#7D4E22;" points="256,291.11 217.87,291.11 217.87,320.27 256,333.73 					"/>
				</g>
				<polygon style="fill:#BF9862;" points="327.78,315.78 300.865,376.345 256,376.345 256,315.78 				"/>
				<g>
					<polygon style="fill:#BF9862;" points="256,158.77 338.99,138.585 382.73,242.885 325.53,324.755 256,266.435 					"/>
					<polygon style="fill:#CEA675;" points="256,226.06 256,333.73 309.835,358.4 341.24,333.73 285.155,228.3 					"/>
				</g>
				<g>
					<polygon style="fill:#7D4E22;" points="256,291.11 294.135,291.11 294.135,320.27 256,333.73 					"/>
				</g>
				<g>
					<path style="fill:#8C6034;" d="M208.335,229.705c0,5.265-4.27,9.535-9.535,9.535c-5.26,0-9.525-4.27-9.525-9.535
						c0-5.265,4.265-9.53,9.525-9.53C204.065,220.175,208.335,224.44,208.335,229.705z"/>
					<path style="fill:#8C6034;" d="M320.485,229.705c0,5.265-4.265,9.535-9.53,9.535c-5.26,0-9.535-4.27-9.535-9.535
						c0-5.265,4.275-9.53,9.535-9.53C316.22,220.175,320.485,224.44,320.485,229.705z"/>
				</g>
			</g>
			<g>
				<g>
					<path style="fill:#CEA675;" d="M127.375,70.73c-23.535,0-42.615,19.08-42.615,42.615c0,23.54,19.08,42.62,42.615,42.62
						c1.96,0,3.865-0.18,5.75-0.43L164.81,92.96C157.58,79.715,143.53,70.73,127.375,70.73z"/>
					<path style="fill:#8C6034;" d="M124.335,137.645c-9.255-2.76-16.02-11.355-16.02-21.495c0-12.37,10.06-22.43,22.425-22.43
						c4.975,0,9.7,1.645,13.54,4.55L124.335,137.645z"/>
				</g>
				<g>
					<path style="fill:#CEA675;" d="M384.62,70.73c23.54,0,42.625,19.08,42.625,42.615c0,23.54-19.085,42.62-42.625,42.62
						c-1.95,0-3.86-0.18-5.74-0.43L347.2,92.96C354.425,79.715,368.475,70.73,384.62,70.73z"/>
					<path style="fill:#8C6034;" d="M387.665,137.645c9.26-2.76,16.025-11.355,16.025-21.495c0-12.37-10.065-22.43-22.43-22.43
						c-4.97,0-9.7,1.645-13.535,4.55L387.665,137.645z"/>
				</g>
			</g>
		</g>
		<path style="opacity:0.08;fill:#8C6034;" d="M460.115,277.715c0,0-28.96-72.22-55.735-126.625
			c13.585-7.13,22.865-21.34,22.865-37.745c0-23.535-19.085-42.615-42.625-42.615c-11.78,0-22.435,4.8-30.145,12.535
			C326.73,69.39,288.47,73.505,256,73.505v370.13l35.885-34.035l44.865,17.02l6.73-44.675l41.495,5.315l1.12-47.86l47.105,4.26
			l-11.215-57.435L460.115,277.715z"/>
	</g>
</g>
</svg>
