<?xml version="1.0" encoding="iso-8859-1"?>
<!-- Generator: Adobe Illustrator 18.0.0, SVG Export Plug-In . SVG Version: 6.00 Build 0)  -->
<!DOCTYPE svg PUBLIC "-//W3C//DTD SVG 1.1//EN" "http://www.w3.org/Graphics/SVG/1.1/DTD/svg11.dtd">
<svg version="1.1" id="_x31_" xmlns="http://www.w3.org/2000/svg" xmlns:xlink="http://www.w3.org/1999/xlink" x="0px" y="0px"
	 viewBox="0 0 512 512" style="enable-background:new 0 0 512 512;" xml:space="preserve">
<g>
	<rect style="fill:#99D4D9;" width="512" height="512"/>
	<polygon style="opacity:0.1;fill:#231815;" points="512,182.99 512,512 218.47,512 84.788,378.265 276.12,265.47 435.3,106.29 	"/>
	<g>
		<g>
			<path style="fill:#231815;" d="M92.845,205.27c-10.75,0-20.68-5.735-26.05-15.045l-15.8-27.36
				c-5.375-9.315-5.375-20.779,0-30.085l15.8-27.365c5.37-9.31,15.3-15.045,26.05-15.045h31.6c10.75,0,20.68,5.735,26.055,15.045
				l15.8,27.365c5.37,9.305,5.37,20.77,0,30.085l-15.8,27.36c-5.375,9.31-15.305,15.045-26.055,15.045H92.845z"/>
			<path style="fill:#231815;" d="M387.56,205.27c-10.75,0-20.685-5.735-26.06-15.045l-15.8-27.36c-5.37-9.315-5.37-20.779,0-30.085
				l15.8-27.365c5.375-9.31,15.31-15.045,26.06-15.045h31.595c10.75,0,20.68,5.735,26.05,15.045l15.8,27.365
				c5.375,9.305,5.375,20.77,0,30.085l-15.8,27.36c-5.37,9.31-15.3,15.045-26.05,15.045H387.56z"/>
		</g>
		<g>
			<path style="fill:#F1F2F1;" d="M247.205,122.69H184.63c-12.705,0-24.565,6.34-31.605,16.91L85.26,241.25
				c-4.16,6.24-6.38,13.565-6.38,21.07v95.76c0,13,6.645,25.09,17.615,32.06l53.46,33.97c6.085,3.87,13.15,5.925,20.36,5.925h76.89
				h7.605V122.69H247.205z"/>
			<path style="fill:#DDDDDE;" d="M426.74,241.25L358.975,139.6c-7.04-10.57-18.905-16.91-31.605-16.91h-62.575h-9.985v307.345
				h9.985h76.885c7.215,0,14.285-2.055,20.365-5.925l53.46-33.97c10.97-6.97,17.62-19.06,17.62-32.06v-95.76
				C433.125,254.815,430.9,247.49,426.74,241.25z"/>
		</g>
		<g>
			<path style="fill:#DCE1E1;" d="M256,332.3v-74.1h-29.005c-13.16,0-24.885,7.71-29.23,19.215l-23.11,61.19
				c-2.34,6.195-2.315,12.945,0.065,19.125l13.25,34.385c4.4,11.415,16.075,19.04,29.17,19.04H256V390.61V332.3z"/>
			<path style="fill:#D3D3D3;" d="M337.34,338.605l-23.105-61.19c-4.35-11.505-16.07-19.215-29.23-19.215H256v74.1v58.31v20.545
				h38.865c13.085,0,24.755-7.625,29.16-19.04l13.245-34.385C339.66,351.55,339.68,344.8,337.34,338.605z"/>
			<path style="fill:#3E3A39;" d="M262.605,377.215c16.1,0,29.16-13.06,29.16-29.165c0-16.105-13.06-29.16-29.16-29.16H256v58.325
				H262.605z"/>
			<path style="fill:#3E3A39;" d="M220.235,348.05c0,16.105,13.05,29.165,29.16,29.165H256V318.89h-6.605
				C233.285,318.89,220.235,331.945,220.235,348.05z"/>
		</g>
		<g>
			<path style="fill:#231815;" d="M162.11,206.925c2.14-5.45,7.395-9.035,13.26-9.035h33.22c4.015,0,7.845,1.7,10.55,4.67
				c2.695,2.98,4.02,6.96,3.63,10.955l-6.445,66.35c-0.27,2.8-1.365,5.45-3.145,7.625l-26.495,32.465
				c-2.705,3.315-6.76,5.235-11.035,5.235h-28.57c-5.085,0-9.785-2.715-12.335-7.12l-13.1-22.675
				c-2.78-4.81-2.505-10.795,0.7-15.335l23.895-33.86c0.66-0.935,1.205-1.94,1.625-3.01L162.11,206.925z"/>
			<path style="fill:#231815;" d="M349.89,206.925c-2.14-5.45-7.41-9.035-13.26-9.035h-33.225c-4.015,0-7.845,1.7-10.545,4.67
				c-2.7,2.98-4.02,6.96-3.63,10.955l6.445,66.35c0.27,2.8,1.365,5.45,3.14,7.625l26.495,32.465c2.705,3.315,6.76,5.235,11.04,5.235
				h28.565c5.09,0,9.79-2.715,12.335-7.12l13.105-22.675c2.78-4.81,2.505-10.795-0.7-15.335L365.75,246.2
				c-0.65-0.935-1.195-1.94-1.61-3.01L349.89,206.925z"/>
		</g>
		<rect x="214.545" y="395.37" style="fill:#B5B5B5;" width="82.91" height="8.375"/>
	</g>
</g>
</svg>
