<?xml version="1.0" encoding="iso-8859-1"?>
<!-- Generator: Adobe Illustrator 18.0.0, SVG Export Plug-In . SVG Version: 6.00 Build 0)  -->
<!DOCTYPE svg PUBLIC "-//W3C//DTD SVG 1.1//EN" "http://www.w3.org/Graphics/SVG/1.1/DTD/svg11.dtd">
<svg version="1.1" id="_x31_" xmlns="http://www.w3.org/2000/svg" xmlns:xlink="http://www.w3.org/1999/xlink" x="0px" y="0px"
	 viewBox="0 0 512 512" style="enable-background:new 0 0 512 512;" xml:space="preserve">
<g>
	<rect style="fill:#99D4D9;" width="512" height="512"/>
	<polygon style="opacity:0.1;fill:#231815;" points="512,280.985 512,512 245.71,512 188.11,454.4 204.75,437.76 147.15,380.16 
		153.6,286.72 224.1,269.925 241.87,252.16 235.52,180.48 230.5,120.165 290.815,59.855 494.285,263.27 	"/>
	<g>
		<g>
			<path style="fill:#595758;" d="M171.09,197.735c0,19.865-10.32,134.045-10.32,146.81c0,19.87-8.405,44.155-14.41,35.32
				c-6-8.83-24.015-41.945-21.61-86.095c2.4-44.15,31.815-84.78,37.935-96.035C169.89,184.485,171.09,185.39,171.09,197.735z"/>
			<polygon style="fill:#3E3A39;" points="238.06,420.145 238.06,445.69 203.84,465.345 202.74,452.57 187.28,452.57 193.91,439.8 
				181.765,435.865 214.88,424.075 214.88,409.335 238.06,409.335 			"/>
			<path style="fill:#595758;" d="M340.91,197.735c0,19.865,10.33,134.045,10.33,146.81c0,19.87,8.395,44.155,14.4,35.32
				c6.005-8.83,24.015-41.945,21.61-86.095c-2.4-44.15-31.815-84.78-37.935-96.035C342.11,184.485,340.91,185.39,340.91,197.735z"/>
			<polygon style="fill:#3E3A39;" points="273.94,420.145 273.94,445.69 308.16,465.345 309.265,452.57 324.72,452.57 
				318.095,439.8 330.24,435.865 297.125,424.075 297.125,409.335 273.94,409.335 			"/>
			<g>
				<path style="fill:#FAFAFB;" d="M333.355,216.5c-18.765-59.605-11.035-65.13-75.06-57.4c-64.02-7.73-56.295-2.205-75.06,57.4
					c-11.94,37.92-32.685,103.2-13.93,154.005c2.75,3.33,5.8,6.42,9.17,9.26c7.025,5.91,25.365,25.49,27.57,29.905
					c5.62,11.235,41.95,15.45,41.95,1.105c0-8.9,2.42-5.795,8.005-5.795s8.005-3.105,8.005,5.795c0,14.345,36.33,10.13,41.95-1.105
					c2.21-4.415,20.545-23.995,27.57-29.905c5.835-4.92,10.71-10.57,14.73-16.97C357.44,317.52,344.535,252.015,333.355,216.5z"/>
				<path style="fill:#595758;" d="M343.115,183.385c-15.455-26.49-19.06-31.865-28.09-77.935
					c-6.6-33.655-26.39-53.495-59.025-53.495s-48.97,20.705-59.025,53.495c-13.74,44.82-17.055,54.75-28.09,77.935
					c-14.795,31.065-22.08,66.23-20.925,113.555c0.775,31.805,6.925,56.095,21.345,73.565
					c-18.755-50.805,1.99-116.085,13.93-154.005c18.765-59.605,11.04-65.13,75.06-57.4c64.025-7.73,56.295-2.205,75.06,57.4
					c11.18,35.515,24.085,101.02,14.9,146.295c10.47-16.68,15.125-38.485,15.785-65.855
					C365.195,249.615,360.45,213.1,343.115,183.385z"/>
			</g>
			<path style="fill:#231815;" d="M315.425,98.085c0,0,17.665,5.4,35.32,23.06c3.93,3.925-8.335,4.415-38.365,4.84
				c-14.345,0.205-29.83-2.88-16.58-16.125C300.21,96.615,308.065,87.29,315.425,98.085z"/>
			<path style="fill:#EADF27;" d="M303.55,155.79c-11.61-3.54-33.115-13.25-45.255-13.25c-12.145,0-33.965,8.79-45.26,13.25
				c-12.91,5.095-7.725,9.935,3.315,14.35c11.04,4.415,41.945,5.515,41.945,5.515s30.91-1.1,41.945-5.515
				C311.28,165.725,317.875,160.15,303.55,155.79z"/>
			<path style="fill:#F4E228;" d="M204.055,109.745c0,0,2.94-10.38,7.845-13.245c4.91-2.86-2.45,9.665,27.475,36.51
				C242.815,135.155,215.335,127.28,204.055,109.745z"/>
		</g>
		<path style="opacity:0.11;fill:#231815;" d="M387.25,293.77c-2.125-39.085-25.39-75.365-34.955-90.995
			c-2.57-6.775-5.59-13.235-9.18-19.39c-12.795-21.93-17.474-29.455-23.825-57.505c24.96-0.42,35.065-1.13,31.455-4.735
			c-17.655-17.66-35.32-23.06-35.32-23.06c-1.04-1.525-2.09-2.605-3.135-3.375c-8.48-27.08-27.305-42.755-56.29-42.755
			c-0.225,0-0.435,0.025-0.66,0.025v352.96c0.225,0.01,0.425,0.04,0.66,0.04c5.585,0,8.005-3.105,8.005,5.795
			c0,4.86,4.205,7.545,9.935,8.595v0.775v25.545l34.22,19.655l1.105-12.775h15.455l-6.625-12.77l12.145-3.935l-33.115-11.79v-7.52
			c4.15-1.75,7.435-4.1,8.83-6.885c2.21-4.415,20.545-23.995,27.57-29.905c5.835-4.92,10.71-10.57,14.73-16.97
			c1.37-2.185,2.63-4.465,3.805-6.825c2.255,16.405,8.705,31.07,13.58,23.895C371.645,371.035,389.655,337.92,387.25,293.77z"/>
	</g>
</g>
</svg>
