<?xml version="1.0" encoding="iso-8859-1"?>
<!-- Generator: Adobe Illustrator 18.0.0, SVG Export Plug-In . SVG Version: 6.00 Build 0)  -->
<!DOCTYPE svg PUBLIC "-//W3C//DTD SVG 1.1//EN" "http://www.w3.org/Graphics/SVG/1.1/DTD/svg11.dtd">
<svg version="1.1" id="_x31_" xmlns="http://www.w3.org/2000/svg" xmlns:xlink="http://www.w3.org/1999/xlink" x="0px" y="0px"
	 viewBox="0 0 512 512" style="enable-background:new 0 0 512 512;" xml:space="preserve">
<g>
	<rect style="fill:#E17B80;" width="512" height="512"/>
	<path style="opacity:0.1;fill:#231815;" d="M512,210.995V512H277.043L143.411,378.368l-39.322-39.271
		c-11.111-17.613-18.074-38.861-18.842-64.051c-0.717-22.835,2.406-42.649,8.704-59.699c-2.662-1.69-5.222-3.584-7.577-5.683
		l86.681-86.682c3.687,4.147,6.81,8.857,9.267,13.978c22.631-7.117,47.77-10.343,73.677-10.343c1.383,0,2.816,0,4.198,0.051
		c1.843,0,3.635,0.051,5.478,0.102c3.174,0.103,6.349,0.256,9.472,0.461h0.154c6.042,0.41,12.032,1.024,17.92,1.792
		c0.614,0.102,1.28,0.153,1.946,0.256c2.662,0.41,5.273,0.819,7.885,1.229c0.717,0.154,1.433,0.307,2.15,0.41
		c2.407,0.461,4.762,0.922,7.066,1.434c2.97,0.666,5.939,1.383,8.857,2.151c2.355,0.614,4.762,1.28,7.066,1.997
		c0.512,0.154,0.973,0.307,1.485,0.461c2.816-5.837,6.502-11.11,10.906-15.667c0.717-0.768,1.433-1.485,2.202-2.202
		c0.768-0.768,1.536-1.434,2.355-2.15c2.406-2.048,4.915-3.891,7.578-5.53c0.922-0.563,1.792-1.075,2.713-1.587
		c0.102-0.051,0.205-0.102,0.256-0.154c1.229-0.666,2.458-1.28,3.738-1.843c1.024-0.461,2.048-0.922,3.072-1.28
		c0.461-0.256,0.922-0.41,1.383-0.563c0.973-0.358,1.894-0.666,2.867-0.973c0.768-0.256,1.485-0.461,2.202-0.614
		c0.921-0.307,1.894-0.512,2.867-0.717c1.229-0.307,2.509-0.512,3.789-0.717c0.154-0.051,0.307-0.051,0.41-0.051
		c1.229-0.205,2.457-0.358,3.738-0.409c0.614-0.103,1.229-0.154,1.843-0.154c1.126-0.051,2.253-0.102,3.379-0.102
		c7.936,0,15.565,1.536,22.528,4.301l34.662,34.611L512,210.995z"/>
	<g>
		<g>
			<g>
				<g>
					<path style="fill:#9D8477;" d="M188.416,163.635c0,7.168-1.229,14.029-3.481,20.378c-7.219,20.531-24.986,36.045-46.797,39.987
						h-0.051c-3.584,0.666-7.27,1.024-11.059,1.024c-12.186,0-23.501-3.533-33.075-9.677c-2.662-1.69-5.222-3.584-7.577-5.683
						c-12.749-11.264-20.787-27.699-20.787-46.029c0-33.946,27.494-61.389,61.44-61.389c18.278,0,34.714,7.987,46.029,20.736
						c3.687,4.147,6.81,8.857,9.267,13.978C186.214,144.998,188.416,154.061,188.416,163.635z"/>
					<path style="fill:#BF9862;" d="M116.086,196.171c11.939-16.88,26.554-31.752,43.272-44.021
						c-4.74-13.314-17.431-22.888-32.349-22.888c-18.945,0-34.36,15.413-34.36,34.36
						C92.649,178.747,102.484,191.592,116.086,196.171z"/>
				</g>
				<g>
					<path style="fill:#9D8477;" d="M446.413,163.635c0,1.434-0.051,2.867-0.154,4.301c-0.051,1.075-0.154,2.15-0.307,3.226
						c-0.051,0.358-0.102,0.717-0.153,1.024c-0.307,2.304-0.768,4.608-1.331,6.81c-0.051,0.102-0.051,0.205-0.103,0.359
						c-0.307,1.229-0.717,2.457-1.126,3.686c-0.41,1.229-0.819,2.406-1.331,3.635c-4.762,11.878-13.158,21.862-23.859,28.672v0.051
						c-9.574,6.093-20.89,9.626-33.075,9.626c-3.789,0-7.475-0.358-11.059-1.024c-21.811-3.943-39.629-19.456-46.848-39.987
						c-2.253-6.349-3.481-13.21-3.481-20.378c0-9.574,2.201-18.637,6.093-26.675c3.738-7.731,9.011-14.541,15.462-20.019
						c3.175-2.714,6.605-5.12,10.291-7.117c0.102-0.051,0.205-0.102,0.256-0.154c1.229-0.666,2.458-1.28,3.738-1.843
						c1.024-0.461,2.048-0.922,3.072-1.28c0.461-0.256,0.922-0.41,1.383-0.563c0.973-0.358,1.894-0.666,2.867-0.973
						c0.768-0.256,1.485-0.461,2.202-0.614c0.921-0.307,1.894-0.512,2.867-0.717c1.229-0.307,2.509-0.512,3.789-0.717
						c0.154-0.051,0.307-0.051,0.41-0.051c1.229-0.205,2.457-0.358,3.738-0.409c0.614-0.103,1.229-0.154,1.843-0.154
						c1.126-0.051,2.253-0.102,3.379-0.102c7.936,0,15.565,1.536,22.528,4.301c15.872,6.195,28.467,18.79,34.662,34.611
						C444.928,148.122,446.413,155.699,446.413,163.635z"/>
					<path style="fill:#BF9862;" d="M395.913,196.171c-11.939-16.88-26.553-31.752-43.272-44.021
						c4.74-13.314,17.431-22.888,32.35-22.888c18.945,0,34.36,15.413,34.36,34.36C419.351,178.747,409.516,191.592,395.913,196.171z
						"/>
				</g>
			</g>
			<path style="fill:#9D8477;" d="M426.854,268.698c0,2.099-0.051,4.198-0.103,6.349C423.731,371.405,331.008,409.754,256,409.754
				c-37.581,0-79.616-9.626-112.589-31.386c-15.616-10.24-29.184-23.245-39.322-39.271c-11.111-17.613-18.074-38.861-18.842-64.051
				c-0.717-22.835,2.406-42.649,8.704-59.699c3.277-8.909,7.373-17.05,12.237-24.473c0.717-1.075,1.434-2.151,2.201-3.226
				c7.936-11.264,17.664-20.838,28.774-28.774c6.195-4.455,12.8-8.397,19.814-11.827c7.987-3.993,16.486-7.322,25.344-10.086
				c22.631-7.117,47.77-10.343,73.677-10.343c1.383,0,2.816,0,4.198,0.051c1.843,0,3.635,0.051,5.478,0.102
				c3.174,0.103,6.349,0.256,9.472,0.461h0.154c6.042,0.41,12.032,1.024,17.92,1.792c0.614,0.102,1.28,0.153,1.946,0.256
				c2.662,0.41,5.273,0.819,7.885,1.229c0.717,0.154,1.433,0.307,2.15,0.41c2.407,0.461,4.762,0.922,7.066,1.434
				c2.97,0.666,5.939,1.383,8.857,2.151c2.355,0.614,4.762,1.28,7.066,1.997c0.512,0.154,0.973,0.307,1.485,0.461h0.051
				c8.858,2.765,17.306,6.093,25.293,10.086c20.736,10.24,38.246,24.678,50.79,43.827c4.864,7.424,8.96,15.565,12.186,24.422
				l0.051,0.051v0.051c0.666,1.894,1.331,3.84,1.997,5.837c1.28,3.993,2.355,8.141,3.277,12.493
				c0.922,4.249,1.69,8.602,2.253,13.158c0,0.154,0,0.359,0.051,0.512c0.205,2.048,0.461,4.147,0.614,6.246
				c0.205,2.662,0.41,5.427,0.461,8.192C426.803,264.09,426.854,266.394,426.854,268.698z"/>
			<path style="fill:#673A1B;" d="M362.196,206.055c-23.993-25.033-69.029-33.984-106.196-33.984
				c-37.173,0-82.208,8.951-106.201,33.984c-24.424,25.486-24.424,75.398,12.744,91.329c37.172,15.93,76.461-15.93,93.456-31.858
				c16.991,15.928,56.284,47.788,93.451,31.858C386.619,281.453,386.619,231.542,362.196,206.055z"/>
			<path style="fill:#FFFFFF;" d="M256,272.335c-25.11,0-71.555,11.299-71.555,46.446c0,28.873,30.127,41.425,71.555,41.425
				c41.423,0,71.55-12.553,71.55-41.425C327.55,283.634,281.105,272.335,256,272.335z"/>
			<ellipse style="fill:#40220F;" cx="256" cy="276.841" rx="32.67" ry="27.038"/>
			<polygon style="fill:#673A1B;" points="282.298,328.831 256,315.684 229.706,328.831 227.242,323.906 256,309.527 
				284.758,323.906 			"/>
			<g>
				<g>
					<circle style="fill:#FFFFFF;" cx="323.594" cy="240.228" r="25.348"/>
					<circle style="fill:#604C3F;" cx="323.594" cy="240.228" r="12.674"/>
				</g>
				<g>
					<circle style="fill:#FFFFFF;" cx="188.406" cy="240.228" r="25.348"/>
					<circle style="fill:#604C3F;" cx="188.406" cy="240.228" r="12.674"/>
				</g>
			</g>
		</g>
		<path style="opacity:0.23;fill:#71605B;" d="M446.413,163.635c0,1.434-0.051,2.867-0.154,4.301
			c-0.051,1.075-0.154,2.15-0.307,3.226c-0.051,0.358-0.102,0.717-0.153,1.024c-0.307,2.304-0.768,4.608-1.331,6.81
			c-0.051,0.102-0.051,0.205-0.103,0.359c-0.307,1.229-0.717,2.457-1.126,3.686c-0.41,1.229-0.819,2.406-1.331,3.635
			c-4.813,11.827-13.261,21.811-23.91,28.621l0.051,0.051v0.051c0.666,1.894,1.331,3.84,1.997,5.837
			c1.229,3.993,2.355,8.141,3.277,12.493c0.922,4.249,1.638,8.653,2.253,13.158c0,0.154,0,0.359,0.051,0.512
			c0.205,2.048,0.461,4.147,0.614,6.246c0.205,2.662,0.41,5.427,0.461,8.192c0.102,2.253,0.154,4.557,0.154,6.861
			c0,2.099-0.051,4.198-0.103,6.349C423.731,371.405,331.008,409.754,256,409.754V126.618c1.383,0,2.816,0,4.198,0.051
			c1.843,0,3.635,0.051,5.478,0.102c3.174,0.103,6.349,0.256,9.472,0.461h0.154c6.042,0.41,12.032,1.024,17.92,1.792
			c0.614,0.102,1.28,0.153,1.946,0.256c2.662,0.41,5.273,0.819,7.885,1.229c0.717,0.154,1.433,0.307,2.15,0.41
			c2.407,0.461,4.762,0.922,7.066,1.434c2.97,0.666,5.939,1.383,8.857,2.151c2.355,0.614,4.762,1.28,7.066,1.997
			c0.512,0.154,0.973,0.307,1.485,0.461h0.051c3.738-7.731,9.011-14.49,15.411-20.019c3.175-2.714,6.656-5.069,10.291-7.117
			c0.102-0.051,0.205-0.102,0.256-0.154c1.229-0.666,2.458-1.28,3.738-1.843c1.024-0.461,2.048-0.922,3.072-1.28
			c0.461-0.256,0.922-0.41,1.383-0.563c0.973-0.358,1.894-0.666,2.867-0.973c0.768-0.256,1.485-0.461,2.202-0.614
			c0.921-0.307,1.894-0.512,2.867-0.717c1.229-0.307,2.509-0.512,3.789-0.717c0.154-0.051,0.307-0.051,0.41-0.051
			c1.229-0.205,2.457-0.358,3.738-0.409c0.614-0.103,1.229-0.154,1.843-0.154c1.126-0.051,2.253-0.102,3.379-0.102
			c7.936,0,15.565,1.536,22.528,4.301c15.872,6.195,28.467,18.79,34.662,34.611C444.928,148.122,446.413,155.699,446.413,163.635z"
			/>
	</g>
</g>
</svg>
