<?xml version="1.0" encoding="iso-8859-1"?>
<!-- Generator: Adobe Illustrator 18.0.0, SVG Export Plug-In . SVG Version: 6.00 Build 0)  -->
<!DOCTYPE svg PUBLIC "-//W3C//DTD SVG 1.1//EN" "http://www.w3.org/Graphics/SVG/1.1/DTD/svg11.dtd">
<svg version="1.1" id="_x31_" xmlns="http://www.w3.org/2000/svg" xmlns:xlink="http://www.w3.org/1999/xlink" x="0px" y="0px"
	 viewBox="0 0 512 512" style="enable-background:new 0 0 512 512;" xml:space="preserve">
<g>
	<rect style="fill:#99D4D9;" width="512" height="512"/>
	<path style="opacity:0.1;fill:#231815;" d="M512,275.2V512H280.678L109.414,340.736C94.925,315.802,86.682,286.873,86.682,256
		c0-11.878,1.229-23.45,3.533-34.611L221.389,90.214c11.161-2.304,22.733-3.533,34.611-3.533c37.734,0,72.602,12.339,100.71,33.229
		l29.389,29.389l5.99,5.991c0.051,0.051,0.103,0.102,0.153,0.153l85.402,85.402L512,275.2z"/>
	<g>
		<path style="fill:#F7F7F7;" d="M425.318,256c0,93.491-75.827,169.267-169.318,169.267c-2.253,0-4.506-0.051-6.758-0.154
			c-0.819-0.051-1.639-0.051-2.458-0.102c-1.69-0.103-3.328-0.205-5.018-0.358c-0.614,0-1.229-0.103-1.894-0.154
			c-1.229-0.102-2.458-0.205-3.687-0.409c-0.563-0.051-1.126-0.102-1.741-0.205c-0.871-0.102-1.741-0.205-2.611-0.358
			c-0.102,0-0.205,0-0.307-0.051c-1.075-0.102-2.099-0.256-3.174-0.461c-0.154,0-0.307-0.051-0.461-0.103
			c-1.536-0.256-3.072-0.512-4.608-0.819c-0.666-0.103-1.331-0.256-1.997-0.41c-1.178-0.205-2.355-0.461-3.533-0.768
			c-1.331-0.307-2.714-0.614-4.045-0.973c-1.075-0.307-2.201-0.563-3.226-0.819c-0.512-0.153-1.075-0.307-1.587-0.461
			c-2.406-0.717-4.864-1.485-7.219-2.304c-3.021-0.973-5.99-2.099-8.909-3.277c-0.871-0.358-1.792-0.717-2.663-1.127
			c-1.28-0.512-2.56-1.075-3.789-1.638c-1.127-0.512-2.253-1.024-3.379-1.587c-1.382-0.615-2.713-1.28-4.045-1.997
			c-0.819-0.41-1.638-0.87-2.457-1.28c-1.792-0.921-3.482-1.894-5.223-2.918c-1.024-0.563-2.048-1.177-3.021-1.792
			c-1.997-1.178-3.943-2.458-5.888-3.738c-4.403-2.918-8.653-5.99-12.697-9.319c-0.307-0.307-0.666-0.563-0.973-0.87
			c-15.667-12.8-29.031-28.416-39.219-46.08C94.925,315.802,86.682,286.873,86.682,256c0-11.878,1.229-23.45,3.533-34.611
			c13.671-65.741,65.434-117.504,131.174-131.174c11.161-2.304,22.733-3.533,34.611-3.533c37.734,0,72.602,12.339,100.71,33.229
			c11.213,8.243,21.299,17.869,30.157,28.621c1.229,1.536,2.458,3.021,3.635,4.608c0.563,0.717,1.075,1.383,1.587,2.151
			c0.051,0.051,0.103,0.102,0.153,0.153c3.891,5.274,7.475,10.752,10.752,16.487c1.177,2.048,2.355,4.147,3.43,6.298
			c1.28,2.457,2.509,4.966,3.687,7.526c0.819,1.792,1.587,3.635,2.355,5.479c2.867,6.861,5.274,13.978,7.219,21.299
			c0.461,1.741,0.87,3.43,1.28,5.222c0.205,0.768,0.358,1.536,0.512,2.304c0.307,1.28,0.563,2.611,0.819,3.994
			c0.051,0.102,0.051,0.256,0.051,0.409c0.205,1.127,0.41,2.304,0.614,3.431c0.256,1.331,0.461,2.611,0.614,3.942
			c0.154,0.871,0.256,1.741,0.358,2.611c0.103,0.563,0.154,1.178,0.205,1.741c0.154,1.229,0.307,2.458,0.409,3.686v0.154
			c0.154,1.434,0.256,2.867,0.358,4.352c0,0.102,0.051,0.256,0,0.358c0.154,1.485,0.205,3.021,0.256,4.506
			C425.267,251.494,425.318,253.747,425.318,256z"/>
		<path style="fill:#C7C6C6;" d="M302.064,281.764c-20.488,0-38.116,10.742-46.058,26.173
			c-7.948-15.431-25.575-26.173-46.069-26.173c-27.923,0-50.559,19.939-50.559,44.531c0,24.592,22.636,44.524,50.559,44.524
			c20.494,0,38.121-10.736,46.069-26.167c7.942,15.431,25.569,26.167,46.058,26.167c27.929,0,50.565-19.933,50.565-44.524
			C352.628,301.703,329.992,281.764,302.064,281.764z"/>
		<ellipse style="fill:#595A59;" cx="256" cy="289.127" rx="37.144" ry="29.184"/>
		<g>
			<path style="fill:#564236;" d="M331.5,226.323h20.452l-6.62,8.955c0.857,1.901,1.346,3.989,1.346,6.198
				c0,8.382-6.801,15.178-15.178,15.178c-8.376,0-15.165-6.795-15.165-15.178C316.335,233.112,323.125,226.323,331.5,226.323z"/>
			<path style="fill:#564236;" d="M180.506,226.323h-20.458l6.62,8.955c-0.857,1.901-1.346,3.989-1.346,6.198
				c0,8.382,6.801,15.178,15.184,15.178c8.376,0,15.165-6.795,15.165-15.178C195.671,233.112,188.882,226.323,180.506,226.323z"/>
		</g>
		<g>
			<path style="fill:#564236;" d="M200.354,191.4c0,2.921-2.649,5.292-5.92,5.292c-3.265,0-5.92-2.371-5.92-5.292
				s2.655-5.292,5.92-5.292C197.705,186.108,200.354,188.479,200.354,191.4z"/>
			<path style="fill:#564236;" d="M323.487,191.4c0,2.921-2.649,5.292-5.914,5.292c-3.271,0-5.926-2.371-5.926-5.292
				s2.655-5.292,5.926-5.292C320.838,186.108,323.487,188.479,323.487,191.4z"/>
		</g>
		<g>
			<g>
				<polygon style="fill:#979493;" points="184.036,313.597 125.263,306.525 124.316,314.358 183.094,321.437 				"/>
				<polygon style="fill:#979493;" points="182.002,333.923 124.485,347.935 126.356,355.605 183.867,341.587 				"/>
			</g>
			<g>
				<polygon style="fill:#979493;" points="327.964,313.597 386.743,306.525 387.684,314.358 328.906,321.437 				"/>
				<polygon style="fill:#979493;" points="330.004,333.923 387.515,347.935 385.645,355.605 328.133,341.587 				"/>
			</g>
		</g>
		<g style="opacity:0.1;">
			<path style="fill:#231815;" d="M148.576,386.847c29.232,24.019,66.642,38.436,107.424,38.436
				c93.508,0,169.304-75.802,169.304-169.305c0-40.783-14.417-78.198-38.435-107.424L148.576,386.847z"/>
		</g>
	</g>
</g>
</svg>
