<?xml version="1.0" encoding="iso-8859-1"?>
<!-- Generator: Adobe Illustrator 18.0.0, SVG Export Plug-In . SVG Version: 6.00 Build 0)  -->
<!DOCTYPE svg PUBLIC "-//W3C//DTD SVG 1.1//EN" "http://www.w3.org/Graphics/SVG/1.1/DTD/svg11.dtd">
<svg version="1.1" id="_x31_" xmlns="http://www.w3.org/2000/svg" xmlns:xlink="http://www.w3.org/1999/xlink" x="0px" y="0px"
	 viewBox="0 0 512 512" style="enable-background:new 0 0 512 512;" xml:space="preserve">
<g>
	<rect style="fill:#9CD1AB;" width="512" height="512"/>
	<path style="opacity:0.1;fill:#231815;" d="M512,255.181V512H274.125l-64.205-64.205l-68.352-68.352l-10.496-10.496l-14.592-14.643
		L86.426,324.25l-17.51-17.511l56.217-125.798c0,0,19.661-59.034,26.88-82.125l18.278-18.278c3.84,0.461,7.629,2.355,10.598,5.376
		c8.294,8.243,41.369,49.613,41.369,49.613h67.482c0,0,33.075-41.369,41.369-49.613c2.048-2.099,4.506-3.635,7.117-4.557
		l23.808,23.808l95.232,95.283L512,255.181z"/>
	<g>
		<g>
			<path style="fill:#C0B495;" d="M322.81,388.282c0,23.965-19.425,43.393-43.39,43.393h-46.84c-23.96,0-43.39-19.427-43.39-43.393
				l0,0c0-23.965,19.43-43.392,43.39-43.392h46.84C303.385,344.89,322.81,364.317,322.81,388.282L322.81,388.282z"/>
			<path style="fill:#92959D;" d="M289.765,135.502c0,0,33.06-41.328,41.33-49.592c8.265-8.265,22.725-8.265,26.86,6.197
				c4.13,14.465,28.93,88.855,28.93,88.855l64.055,143.263h-34.66v34.44l-29.62-6.2l-10.33,29.618l-27.55-12.397l-13.775,26.175
				l-44.85-25.832l-36.425,17.567h4.54l-36.425-17.567l-44.85,25.832l-13.775-26.175l-27.55,12.397l-10.33-29.618l-29.62,6.2v-34.44
				H61.06l64.055-143.263c0,0,24.8-74.39,28.93-88.855c4.135-14.463,18.6-14.463,26.865-6.197
				c8.265,8.265,41.325,49.592,41.325,49.592H289.765z"/>
			<g>
				<g>
					<polygon style="fill:#FEFFFF;" points="200.205,156.855 173.345,121.727 163.015,156.855 					"/>
				</g>
				<g>
					<polygon style="fill:#FEFFFF;" points="311.795,156.855 338.655,121.727 348.985,156.855 					"/>
				</g>
			</g>
			<path style="fill:#FEFFFF;" d="M256,387.595h24.795c0,0,20.81,0.825,36.785-15.152c19.285-19.285,26.755-59.41,26.755-59.41
				c17.045-2.583,48.98-50.69,13.945-82.48c-37.19-33.75-97.115,2.41-90.225,60.267v56.795l10.95,30.337L256,380.707v1.375
				l-23.01-2.753l10.955-30.337v-56.795c6.885-57.86-53.035-94.02-90.23-60.268c-35.03,31.79-3.1,79.898,13.945,82.48
				c0,0,7.475,40.122,26.755,59.407c15.98,15.98,36.785,15.153,36.785,15.153H256V387.595z"/>
			<g>
				<g>
					<path style="fill:#564236;" d="M198.595,272.89h-14.17l4.585,6.215c-0.595,1.32-0.935,2.762-0.935,4.292
						c0,5.81,4.705,10.523,10.52,10.523c5.8,0,10.51-4.712,10.51-10.523C209.105,277.597,204.395,272.89,198.595,272.89z"/>
				</g>
				<g>
					<path style="fill:#564236;" d="M313.405,272.89h14.17l-4.58,6.215c0.59,1.32,0.93,2.762,0.93,4.292
						c0,5.81-4.705,10.523-10.52,10.523c-5.8,0-10.51-4.712-10.51-10.523C302.895,277.597,307.605,272.89,313.405,272.89z"/>
				</g>
			</g>
			<path style="fill:#71605B;" d="M276.595,372.612c-4.385,0-20.595,0-20.595,0s-16.215,0-20.595,0
				c-12.27,0-20.15,14.895-10.51,27.165c12.015,15.3,23.215,15.773,31.105,15.773c7.885,0,19.085-0.473,31.105-15.773
				C296.75,387.507,288.865,372.612,276.595,372.612z"/>
		</g>
		<path style="opacity:0.23;fill:#71605B;" d="M386.885,180.962c0,0-24.8-74.39-28.93-88.855
			c-4.135-14.463-18.595-14.463-26.86-6.197c-8.27,8.265-41.33,49.592-41.33,49.592H251.95v296.173h27.47
			c23.78,0,43.07-19.14,43.365-42.852l12.22,7.037l13.775-26.175l27.55,12.397l10.33-29.618l29.62,6.2v-34.44h34.66L386.885,180.962
			z"/>
	</g>
</g>
</svg>
